<svg xmlns="http://www.w3.org/2000/svg" width="28" height="28" viewBox="0 0 24 24" fill="#181717">
  <path d="M12 .5C5.65.5.5 5.65.5 
           12c0 5.09 3.29 9.4 7.86 10.94.58.11.79-.25.79-.56 
           0-.28-.01-1.02-.02-2-3.2.69-3.88-1.54-3.88-1.54-.53-1.35-1.29-1.71-1.29-1.71-1.06-.72.08-.71.08-.71 
           1.17.08 1.78 1.2 1.78 1.2 1.04 1.78 2.73 1.27 
           3.4.97.1-.75.41-1.27.74-1.56-2.55-.29-5.23-1.28-5.23-5.69 
           0-1.26.45-2.3 1.2-3.11-.12-.29-.52-1.45.11-3.02 
           0 0 .97-.31 3.18 1.19.92-.26 1.9-.39 
           2.88-.39s1.96.13 2.88.39c2.2-1.5 
           3.18-1.19 3.18-1.19.63 1.57.23 2.73.11 
           3.02.75.81 1.2 1.85 1.2 3.11 0 4.42-2.69 
           5.39-5.25 5.67.42.36.8 1.09.8 2.21 
           0 1.6-.02 2.88-.02 3.27 0 .31.21.68.8.56 
           4.57-1.54 7.86-5.85 7.86-10.94 
           0-6.35-5.15-11.5-11.5-11.5z"></path>
</svg>
