<svg xmlns="http://www.w3.org/2000/svg" width="28" height="28" viewBox="0 0 24 24" fill="#0A66C2">
  <path d="M19 0h-14c-2.761 0-5 2.239-5 5v14c0 2.761 
           2.239 5 5 5h14c2.762 0 5-2.239 
           5-5v-14c0-2.761-2.238-5-5-5zm-11 
           19h-3v-10h3v10zm-1.5-11.268c-.966 
           0-1.75-.784-1.75-1.75s.784-1.75 
           1.75-1.75 1.75.784 
           1.75 1.75-.784 1.75-1.75 1.75zm13.5 
           11.268h-3v-5.604c0-1.336-.025-3.055-1.861-3.055-1.861 
           0-2.145 1.452-2.145 2.953v5.706h-3v-10h2.881v1.367h.041c.401-.757 
           1.379-1.555 2.837-1.555 3.033 0 3.595 1.995 
           3.595 4.59v5.598z"></path>
</svg>
